# xmcd CD database file
#
# Track frame offsets:
#	150
#	18548
#	41229
#	64600
#	96378
#	133828
#	177679
#	210367
#
# Disc length: 3214 seconds
#
# Revision: 0
# Processed by: cddbd v1.5.2PL0 Copyright (c) Steve Scherf et al.
# Submitted via: CDex 1.51
#
DISCID=760c8c08
DTITLE=Los Blancos - The Thirst of a Thousand Camels
DYEAR=1900
DGENRE=Blues
TTITLE0=Chill
TTITLE1=Miss Your Water
TTITLE2=Mighty Mean Mama
TTITLE3=Shakin' That Thing
TTITLE4=Good Time Woman
TTITLE5=Crazy Mama
TTITLE6=I'll be Your Man
TTITLE7=Roll Your Money Maker
EXTD=
EXTT0=
EXTT1=
EXTT2=
EXTT3=
EXTT4=
EXTT5=
EXTT6=
EXTT7=
PLAYORDER=
